<svg xmlns="http://www.w3.org/2000/svg" width="412" height="412" viewBox="0 0 412 412"><path fill="#0c0c0c" d="M0 0h412v412H0z"/><path fill="#d7d7d7" d="M248.338 108.914c.806-.117 2.946-.152 3.83-.155a36.96 36.96 0 0 1 26.201 10.815 35.97 35.97 0 0 1 9.47 16.28c1.83 6.857 1.382 17.535 1.395 24.991l.03 26.996c-12.05-5.987-26.887-9.513-26.57-25.593.019-.941-.004-1.919-.002-2.864l.025-8.193c.013-4.745.48-9.57-3.103-13.279-1.897-1.963-4.727-3.132-7.454-3.095a10.55 10.55 0 0 0-7.42 3.268c-1.237 1.279-2.399 3.382-2.596 5.122-.488 4.324-.282 9.556-.273 13.968l.06 28.176c5.073 2.323 12.158 6.306 17.197 8.965 6.994 3.69 15.949 7.599 21.615 12.729 5.436 4.921 8.517 12.834 8.515 20.099-.002 7.46.086 15.16.012 22.659-.163 16.332 2.14 28.636-10.067 41.736a37.12 37.12 0 0 1-25.773 11.668q-.881.022-1.762.03a37.2 37.2 0 0 1-26.26-10.902c-12.513-12.443-10.955-25.24-10.942-41.255l-.052-29.177c5.804 2.908 15.217 6.364 20.031 10.093 6.589 5.105 7.383 11.366 7.412 19.093l.025 8.6c.02 7.422-.17 16.18 10.3 16.703 4.817.24 9.664-3.806 10.216-8.643.511-4.47.29-9.574.287-14.167l.02-27.361c-12.104-6.863-25.75-12.993-37.298-20.722-5.54-3.708-10.295-12.393-10.714-19.002-.397-6.263-.22-13.172-.23-19.628l-.04-14.197c-.01-4.61-.207-9.377.751-13.893a38.8 38.8 0 0 1 7.632-16.191c6.469-7.97 15.356-12.625 25.532-13.674"/><path fill="#d7d7d7" d="M149.262 131.42c.334.004.165-.043.484.209.197 1.404.072 4.346.062 5.887l-.01 9.488c-.004 13.018-.26 26.958.049 39.904q10.423 5.144 20.744 10.49c10.681 5.425 21.671 8.855 25.75 21.458 1.878 5.806 1.623 10.106 1.628 16.076l-.002 12.64.015 43.917c-8.336-1.98-18.396-4.273-26.797-5.94l-.006-57.873c-7.117-3.657-14.167-7.9-21.424-11.583l.056 64.292c-17.83-3.286-28.163-17.002-27.332-35.103.147-3.216-.003-7.162-.003-10.44l.007-33.932.007-26.836c.003-4.224-.205-11.313.304-15.252a31.4 31.4 0 0 1 5.08-13.673c5.272-7.95 12.3-11.851 21.388-13.73"/><path fill="#d7d7d7" d="m197.602 120.749.07.017c.352.375.283.673.283 1.34-.006 7.486-.005 14.993-.002 22.478l.028 45.766a392 392 0 0 0-9.268-4.448c-2.465-1.134-6.197-2.724-8.4-4.151a21 21 0 0 1-3.037-2.535c-4.426-4.422-6.008-9.3-6.046-15.456-.026-4.284-.025-8.575-.027-12.858l-.006-24.464q13.223-2.75 26.405-5.69"/></svg>